<mxfile host="app.diagrams.net" modified="2021-08-05T01:23:35.603Z" agent="5.0 (Windows NT 6.1; Win64; x64) AppleWebKit/537.36 (KHTML, like Gecko) Chrome/92.0.4515.107 Safari/537.36" etag="mNKBJUcTnn01XV7NG7tr" version="14.9.4" type="github">
  <diagram id="D1qLfNQls1CtJ2pV2jUi" name="第 1 页">
    <mxGraphModel dx="1086" dy="621" grid="1" gridSize="10" guides="1" tooltips="1" connect="1" arrows="1" fold="1" page="1" pageScale="1" pageWidth="827" pageHeight="1169" math="0" shadow="0">
      <root>
        <mxCell id="0" />
        <mxCell id="1" parent="0" />
        <mxCell id="pem4LPSh_8a1uwv942am-1" value="" style="endArrow=none;dashed=1;html=1;" edge="1" parent="1">
          <mxGeometry width="50" height="50" relative="1" as="geometry">
            <mxPoint x="160" y="200" as="sourcePoint" />
            <mxPoint x="560" y="200" as="targetPoint" />
          </mxGeometry>
        </mxCell>
        <mxCell id="pem4LPSh_8a1uwv942am-3" value="事务 A" style="verticalLabelPosition=bottom;html=1;verticalAlign=top;align=center;strokeColor=none;fillColor=#00BEF2;shape=mxgraph.azure.user;fontSize=16;" vertex="1" parent="1">
          <mxGeometry x="90" y="170" width="47.5" height="50" as="geometry" />
        </mxCell>
        <mxCell id="pem4LPSh_8a1uwv942am-4" value="" style="endArrow=none;dashed=1;html=1;" edge="1" parent="1">
          <mxGeometry width="50" height="50" relative="1" as="geometry">
            <mxPoint x="160" y="320" as="sourcePoint" />
            <mxPoint x="560" y="320" as="targetPoint" />
          </mxGeometry>
        </mxCell>
        <mxCell id="pem4LPSh_8a1uwv942am-6" value="数据库" style="aspect=fixed;perimeter=ellipsePerimeter;html=1;align=center;shadow=0;dashed=0;spacingTop=3;image;image=img/lib/active_directory/database.svg;fontSize=16;" vertex="1" parent="1">
          <mxGeometry x="73.21000000000001" y="290" width="81.08" height="60" as="geometry" />
        </mxCell>
        <mxCell id="pem4LPSh_8a1uwv942am-9" value="" style="endArrow=none;dashed=1;html=1;" edge="1" parent="1">
          <mxGeometry width="50" height="50" relative="1" as="geometry">
            <mxPoint x="160" y="440" as="sourcePoint" />
            <mxPoint x="560" y="440" as="targetPoint" />
          </mxGeometry>
        </mxCell>
        <mxCell id="pem4LPSh_8a1uwv942am-10" value="事务 B" style="verticalLabelPosition=bottom;html=1;verticalAlign=top;align=center;strokeColor=#C73500;fillColor=#fa6800;shape=mxgraph.azure.user;fontColor=#000000;fontSize=16;" vertex="1" parent="1">
          <mxGeometry x="90" y="410" width="47.5" height="50" as="geometry" />
        </mxCell>
      </root>
    </mxGraphModel>
  </diagram>
</mxfile>
